<?xml version="1.0" encoding="UTF-8"?>
<svg version="1.1" xmlns="http://www.w3.org/2000/svg" width="1024" height="1024">
<path d="M0 0 C337.92 0 675.84 0 1024 0 C1024 337.92 1024 675.84 1024 1024 C686.08 1024 348.16 1024 0 1024 C0 686.08 0 348.16 0 0 Z " fill="#FEFEFE" transform="translate(0,0)"/>
<path d="M0 0 C0.66 0.33 1.32 0.66 2 1 C1.16597656 1.81082031 0.33195313 2.62164062 -0.52734375 3.45703125 C-6.71563793 9.52633751 -12.5587964 15.64724601 -17.953125 22.44921875 C-19.91731974 24.89696525 -21.95867622 27.23443144 -24.0625 29.5625 C-43.54523043 51.33731637 -59.53480001 76.54927906 -73.83154297 101.94384766 C-74.88826481 103.80337782 -75.96886925 105.64483144 -77.06640625 107.48046875 C-83.45806461 118.28818198 -88.73820523 129.6100397 -94 141 C-94.44746582 141.96276855 -94.89493164 142.92553711 -95.35595703 143.91748047 C-108.83976146 173.10856129 -119.40298956 203.4916253 -128.29663086 234.36450195 C-129.62436036 238.90952853 -131.19314821 243.26082977 -133.0390625 247.6171875 C-134.49496995 251.2273645 -135.62739473 254.93506669 -136.77734375 258.65234375 C-138.19897851 262.54480699 -139.90221251 266.25649619 -141.63745117 270.01782227 C-142.97920183 272.95447955 -144.26897149 275.90838887 -145.54296875 278.875 C-162.02046132 317.13041564 -183.15251778 350.84978319 -212 381 C-213.35351562 382.41732422 -213.35351562 382.41732422 -214.734375 383.86328125 C-220.46237055 389.72809198 -226.51952243 394.98285607 -233 400 C-233.55284668 400.42925781 -234.10569336 400.85851562 -234.67529297 401.30078125 C-248.4730345 411.93741843 -262.99606777 420.71607321 -279.16259766 427.25488281 C-280.88013514 427.9513915 -282.58703516 428.67397223 -284.29296875 429.3984375 C-326.73359932 446.79645997 -377.01579117 442.86637972 -418.83666992 425.92944336 C-473.20915734 403.12679142 -515.06014793 360.15082481 -538 306 C-540.61759684 299.42624809 -542.88858161 292.75162857 -545 286 C-545.38929688 284.75863281 -545.77859375 283.51726562 -546.1796875 282.23828125 C-551.99057192 261.40468399 -553.38077491 239.88967351 -553.4375 218.375 C-553.44358276 217.50756165 -553.44966553 216.64012329 -553.45593262 215.74639893 C-553.51490721 202.91638446 -552.22445092 190.627638 -550 178 C-549.88446777 177.32572968 -549.76893555 176.65145935 -549.64990234 175.95675659 C-547.58373082 163.90917623 -544.09708969 152.24112383 -540.70849609 140.51098633 C-540.47469238 139.68236084 -540.24088867 138.85373535 -540 138 C-539.75975098 137.27385498 -539.51950195 136.54770996 -539.27197266 135.79956055 C-539.18222168 135.20570557 -539.0924707 134.61185059 -539 134 C-540.1506428 132.8493572 -541.31189142 131.70742417 -542.5234375 130.62109375 C-549.07366753 123.42970364 -550.32123386 114.60834581 -550.20703125 105.31640625 C-549.60330439 95.64538536 -545.04090314 88.80036212 -538.1171875 82.20703125 C-529.78315648 75.37447546 -520.50370906 74.24123348 -510 75 C-508.1128125 75.4640625 -508.1128125 75.4640625 -506.1875 75.9375 C-503.10008005 76.33144815 -503.10008005 76.33144815 -501.48046875 74.82421875 C-500.34254577 73.61984772 -499.22316109 72.39783748 -498.1171875 71.1640625 C-486.91063502 59.70939447 -470.25530523 52.81835042 -455 49 C-454.30592041 48.82339844 -453.61184082 48.64679688 -452.89672852 48.46484375 C-445.469237 46.75895008 -438.16053231 46.61489495 -430.5625 46.625 C-429.57446381 46.62531723 -429.57446381 46.62531723 -428.56646729 46.62564087 C-403.50436132 46.70572241 -380.04561637 54.15049844 -361 71 C-359.85724609 72.21623047 -359.85724609 72.21623047 -358.69140625 73.45703125 C-355.71628619 76.26806632 -352.60700401 78.14470272 -349 80 C-348.34499512 80.34611328 -347.68999023 80.69222656 -347.01513672 81.04882812 C-342.81345192 83.21914081 -338.59799942 84.94234373 -334.125 86.5 C-326.37762233 89.34928158 -320.41370334 93.80578196 -316.5 101.1875 C-311.80857579 111.50428936 -312.51728541 127.05185622 -316.03125 137.59375 C-323.1297752 155.22557065 -335.40082465 167.52735132 -352.88671875 175.14404297 C-357.83849274 177.1496945 -362.90501536 178.86348956 -367.98413086 180.51611328 C-377.77773001 183.64498599 -377.77773001 183.64498599 -384.9375 190.625 C-389.35624206 199.59504639 -388.2758563 211.16843553 -385.20019531 220.41064453 C-377.05460115 242.0574828 -362.17268874 254.82353009 -341.80859375 264.51953125 C-317.09611256 275.41145039 -288.92131811 277.71256729 -263 270 C-262.26233398 269.79101074 -261.52466797 269.58202148 -260.76464844 269.36669922 C-227.34681411 259.78079273 -199.30720394 236.93103844 -178 210 C-177.36835937 209.2471875 -176.73671875 208.494375 -176.0859375 207.71875 C-170.92962037 201.52268167 -166.51074078 194.90733753 -162.1237793 188.15600586 C-161.38768433 187.02884155 -161.38768433 187.02884155 -160.63671875 185.87890625 C-159.98255981 184.86679077 -159.98255981 184.86679077 -159.31518555 183.83422852 C-158.01542726 182.02151569 -156.62108137 180.52682211 -155 179 C-159.86302363 201.08623231 -170.68217757 222.58268128 -185 240 C-185.47228027 240.57766113 -185.94456055 241.15532227 -186.43115234 241.75048828 C-192.17044383 248.73400057 -197.89269419 255.36921195 -205 261 C-206.46953125 262.24136719 -206.46953125 262.24136719 -207.96875 263.5078125 C-232.78664499 284.15714798 -262.44975898 294.46619994 -294.625 294.375 C-295.66815872 294.37468277 -295.66815872 294.37468277 -296.73239136 294.37435913 C-308.52437616 294.33875419 -319.62948164 293.23694055 -331 290 C-331.66692871 289.81808105 -332.33385742 289.63616211 -333.02099609 289.44873047 C-359.28826245 282.12426721 -383.97319419 265.97274933 -397.55151367 241.95336914 C-404.5103951 229.1597442 -407.4697679 216.37612787 -409 202 C-430.49735933 221.36728561 -446.53317824 243.28346972 -453 272 C-453.17515137 272.76916748 -453.35030273 273.53833496 -453.53076172 274.33081055 C-455.15879651 282.20012949 -455.38537391 289.91846822 -455.375 297.9375 C-455.37478851 298.61708771 -455.37457703 299.29667542 -455.37435913 299.99685669 C-455.3380817 311.72375047 -454.09554096 322.67377966 -451 334 C-450.82871582 334.69013184 -450.65743164 335.38026367 -450.48095703 336.09130859 C-443.28771062 365.03704273 -422.53233819 390.28019629 -397.30224609 405.59057617 C-367.35551395 423.04051862 -333.38945093 421.8134946 -300.734375 413.41748047 C-277.4414964 407.10334986 -252.67045833 393.02518444 -235.73828125 375.68359375 C-234 374 -234 374 -232 374 C-232 373.34 -232 372.68 -232 372 C-230.56640625 370.625 -230.56640625 370.625 -228.5625 369 C-219.08054074 360.89874709 -211.4846416 350.9159421 -204 341 C-203.53223145 340.38334473 -203.06446289 339.76668945 -202.58251953 339.13134766 C-189.11329368 321.20474669 -178.09609824 301.47338909 -168.92919922 281.03759766 C-168.07228797 279.15851693 -167.16525918 277.30250693 -166.25390625 275.44921875 C-160.16809625 263.03866395 -155.65772888 249.99684827 -151 237 C-150.76309448 236.34491455 -150.52618896 235.6898291 -150.28210449 235.01489258 C-146.99528476 225.92194963 -143.96328384 216.79123708 -141.17211914 207.53466797 C-127.17938621 161.15611676 -105.8407262 115.28866577 -76.29101562 76.68798828 C-75.0213901 75.02796731 -73.76724593 73.35721524 -72.515625 71.68359375 C-66.77084006 64.05241041 -60.65384528 56.78657234 -54.36865234 49.59814453 C-52.96362558 47.95752641 -51.61909928 46.27618653 -50.26953125 44.58984375 C-49.52058594 43.73519531 -48.77164062 42.88054687 -48 42 C-47.34 42 -46.68 42 -46 42 C-45.773125 41.443125 -45.54625 40.88625 -45.3125 40.3125 C-37.00082762 25.66812485 -16.75220658 12.60044516 -3.265625 2.6796875 C-1.14303972 1.19200758 -1.14303972 1.19200758 0 0 Z " fill="#060606" transform="translate(769,314)"/>
<path d="M0 0 C0.6914209 0.2578125 1.3828418 0.515625 2.09521484 0.78125 C11.30278399 4.36715928 18.61125005 8.88200588 25.88085938 15.55419922 C32.76044872 21.80601608 40.68911093 25.90536685 49 30 C48 33 48 33 46.4375 34.3125 C44.7412819 36.00370508 44.7412819 36.00370508 44.5625 38.875 C45.11443318 42.81737985 46.26822134 44.12211324 49 47 C51.34197257 48.40297413 53.54465912 49.6045167 56 50.75 C56.61617187 51.05292969 57.23234375 51.35585938 57.8671875 51.66796875 C60.85951464 53.1127619 63.72595088 54.37793067 67 55 C66.37453629 64.59044355 61.77024191 72.34375427 54.8125 78.84375 C45.52196571 85.96649296 34.43097687 89.681076 23.4465332 93.35375977 C11.6130338 97.37735491 0.45804547 103.16266888 -10 110 C-11.02996094 110.65871094 -12.05992187 111.31742187 -13.12109375 111.99609375 C-44.40429172 132.71460948 -63.96936902 165.78926568 -71.90039062 201.97949219 C-79.91821613 242.40391062 -69.18429543 281.70843956 -46.73046875 315.43359375 C-45.87388672 316.70396484 -45.87388672 316.70396484 -45 318 C-53.95041136 314.84755423 -60.8636593 307.32247761 -67.75390625 301.0234375 C-69.52725596 299.42588072 -71.31683982 297.91616508 -73.1875 296.4375 C-76.85874127 293.25575756 -79.86720732 289.70293694 -83 286 C-83.83789062 285.04996094 -84.67578125 284.09992188 -85.5390625 283.12109375 C-117.0848263 247.12916924 -133.2622546 200.1020712 -133.1875 152.5 C-133.18689575 151.78968628 -133.1862915 151.07937256 -133.18566895 150.34753418 C-133.1605337 139.45538947 -132.83913126 128.75491976 -131 118 C-130.87109375 117.23429687 -130.7421875 116.46859375 -130.609375 115.6796875 C-127.49418458 97.7384982 -122.93187405 80.0473636 -116.19921875 63.1171875 C-115.28046066 60.729015 -114.52748567 58.49469693 -114 56 C-115.8253125 55.38125 -115.8253125 55.38125 -117.6875 54.75 C-122.9298281 52.74939422 -126.05751131 50.72247934 -128.8125 45.6875 C-130.24964073 41.22479983 -131.04362163 37.5903224 -129.23828125 33.109375 C-126.98780844 28.87528385 -124.6862058 26.01890565 -120.1875 24.3125 C-113.3173039 23.33104341 -109.61233863 24.1145348 -104 28 C-102.0625 30.25 -102.0625 30.25 -101 32 C-97.33089446 30.77696482 -96.55558967 29.42760073 -94.25 26.375 C-81.48805517 10.13461895 -62.9295231 -1.00967998 -42.19873047 -3.78466797 C-27.94256144 -5.18084175 -13.52920577 -5.04560195 0 0 Z " fill="#FDFDFD" transform="translate(368,384)"/>
<path d="M0 0 C-1.11375 0.66644531 -2.2275 1.33289063 -3.375 2.01953125 C-24.18696763 14.55267973 -44.30115531 28.46414396 -63 44 C-63.95261719 44.77988281 -64.90523437 45.55976563 -65.88671875 46.36328125 C-81.82165613 59.52941735 -97.70153174 73.94989425 -111.08203125 89.7421875 C-112.66231383 91.60247942 -114.2656178 93.43336247 -115.88671875 95.2578125 C-123.76301656 104.15923015 -131.0503613 113.36017857 -138 123 C-138.55300781 123.76441406 -139.10601563 124.52882813 -139.67578125 125.31640625 C-158.14570654 150.95749892 -174.06128593 178.14907856 -187 207 C-187.99 207 -188.98 207 -190 207 C-191.55883789 204.94311523 -191.55883789 204.94311523 -193.22265625 202.05859375 C-194.14618896 200.4818689 -194.14618896 200.4818689 -195.08837891 198.87329102 C-195.73983887 197.73947998 -196.39129883 196.60566895 -197.0625 195.4375 C-198.41983443 193.11887975 -199.78606999 190.80554853 -201.15234375 188.4921875 C-201.81476074 187.36780273 -202.47717773 186.24341797 -203.15966797 185.08496094 C-206.85882293 178.88404264 -210.85677121 172.91071751 -215 167 C-215.49709473 166.2879541 -215.99418945 165.5759082 -216.50634766 164.84228516 C-222.78846707 155.88391797 -229.26204557 147.21272217 -236.4453125 138.95703125 C-238.90898744 136.10534634 -241.27203596 133.19324048 -243.625 130.25 C-247.1369802 125.92901008 -250.88509794 122.00407145 -254.875 118.125 C-256.90373117 116.09626883 -258.769511 113.99932632 -260.625 111.8125 C-263.78847143 108.1156095 -267.23300584 105.07509728 -271 102 C-267.66435056 94.02743127 -259.20324503 88.03728667 -252.75390625 82.5390625 C-251.12603798 81.11059903 -249.6224559 79.62544231 -248.125 78.0625 C-246 76 -246 76 -244 76 C-244 75.34 -244 74.68 -244 74 C-242.2928269 72.36818599 -240.50811916 70.81669508 -238.6875 69.3125 C-237.70136719 68.48363281 -236.71523438 67.65476562 -235.69921875 66.80078125 C-234.80847656 66.20652344 -233.91773438 65.61226563 -233 65 C-228.70758793 66.43080402 -227.14419069 69.65485269 -224.6875 73.25 C-224.16333496 74.00724365 -223.63916992 74.7644873 -223.09912109 75.54467773 C-221.39015425 78.02356058 -219.69487876 80.51146856 -218 83 C-217.43780762 83.81678223 -216.87561523 84.63356445 -216.29638672 85.47509766 C-205.63332397 100.9830656 -195.14241984 116.99586528 -187 134 C-183.02698645 132.67566215 -181.79500997 130.14374377 -179.5625 126.8125 C-174.20704537 119.07761797 -168.24908571 112.02153922 -162 105 C-161.17371094 104.0615625 -160.34742188 103.123125 -159.49609375 102.15625 C-148.06634139 89.42075128 -136.09034158 76.48621441 -122.54296875 65.984375 C-120.11920437 64.09301969 -117.80091332 62.10813035 -115.4855957 60.08642578 C-85.54427895 34.08009791 -48.61307248 13.90890732 -11.00390625 1.6640625 C-9.19740895 1.06541817 -7.40963408 0.41097559 -5.625 -0.25 C-3 -1 -3 -1 0 0 Z " fill="#050505" transform="translate(808,271)"/>
<path d="M0 0 C3.5163768 2.23769433 5.28389364 3.6797109 6.21875 7.83203125 C6.86158596 12.23691857 7.28676438 15.88970638 4.75 19.75 C0.48490358 23.69521419 -3.22005874 24.42675118 -8.83984375 24.21484375 C-12.79377745 23.45225362 -14.53603235 21.67273439 -17.25 18.75 C-19.21995556 14.81008887 -18.70307739 10.04492536 -18.25 5.75 C-14.09484912 -1.52151404 -7.73808588 -2.97618688 0 0 Z " fill="#090909" transform="translate(364.25,407.25)"/>
<path d="M0 0 C0.66 0.33 1.32 0.66 2 1 C0.74896484 2.21623047 0.74896484 2.21623047 -0.52734375 3.45703125 C-6.71563793 9.52633751 -12.5587964 15.64724601 -17.953125 22.44921875 C-19.91731974 24.89696525 -21.95867622 27.23443144 -24.0625 29.5625 C-29.35851974 35.45167395 -34.27441751 41.64590908 -39 48 C-39.99 47.67 -40.98 47.34 -42 47 C-42 45.35 -42 43.7 -42 42 C-44.31 42.66 -46.62 43.32 -49 44 C-48.67 43.34 -48.34 42.68 -48 42 C-47.34 42 -46.68 42 -46 42 C-45.773125 41.443125 -45.54625 40.88625 -45.3125 40.3125 C-37.00082762 25.66812485 -16.75220658 12.60044516 -3.265625 2.6796875 C-1.14303972 1.19200758 -1.14303972 1.19200758 0 0 Z " fill="#101010" transform="translate(769,314)"/>
<path d="M0 0 C1 2 1 2 0.53442383 3.92016602 C0.26138428 4.69030029 -0.01165527 5.46043457 -0.29296875 6.25390625 C-0.59396484 7.10919922 -0.89496094 7.96449219 -1.20507812 8.84570312 C-1.69137695 10.19051758 -1.69137695 10.19051758 -2.1875 11.5625 C-2.64479492 12.86670898 -2.64479492 12.86670898 -3.11132812 14.19726562 C-5.14868411 19.92492678 -7.44796629 25.4830665 -10 31 C-10.99 31 -11.98 31 -13 31 C-13.33 30.01 -13.66 29.02 -14 28 C-13.34 28 -12.68 28 -12 28 C-12 26.68 -12 25.36 -12 24 C-12.99 23.67 -13.98 23.34 -15 23 C-10.11852503 15.25065849 -5.10767078 7.60180612 0 0 Z " fill="#141414" transform="translate(613,493)"/>
<path d="M0 0 C-0.52432617 0.31751221 -1.04865234 0.63502441 -1.58886719 0.9621582 C-3.97722421 2.41011945 -6.36362419 3.86127606 -8.75 5.3125 C-9.575 5.81201172 -10.4 6.31152344 -11.25 6.82617188 C-12.04921875 7.31279297 -12.8484375 7.79941406 -13.671875 8.30078125 C-14.4050293 8.74591064 -15.13818359 9.19104004 -15.89355469 9.6496582 C-18.05932101 10.97707511 -18.05932101 10.97707511 -20.08300781 12.73120117 C-20.71561523 13.14990479 -21.34822266 13.5686084 -22 14 C-22.99 13.67 -23.98 13.34 -25 13 C-24.835 12.401875 -24.67 11.80375 -24.5 11.1875 C-23.8885876 8.88655664 -23.8885876 8.88655664 -24 6 C-20.56744035 4.79786867 -17.12828802 3.61585206 -13.6875 2.4375 C-12.71103516 2.09525391 -11.73457031 1.75300781 -10.72851562 1.40039062 C-9.79072266 1.08134766 -8.85292969 0.76230469 -7.88671875 0.43359375 C-7.02264404 0.13509521 -6.15856934 -0.16340332 -5.26831055 -0.47094727 C-3 -1 -3 -1 0 0 Z " fill="#0F0F0F" transform="translate(808,271)"/>
<path d="M0 0 C3.45197673 -0.39451163 4.7017938 -0.21819966 7.5625 1.875 C8.366875 2.57625 9.17125 3.2775 10 4 C10.65355469 4.28875 11.30710937 4.5775 11.98046875 4.875 C14.47340581 6.26371542 15.32731458 7.67481955 16.75 10.125 C17.17796875 10.84945312 17.6059375 11.57390625 18.046875 12.3203125 C18.36140625 12.87460937 18.6759375 13.42890625 19 14 C15.02682945 12.62111791 12.18393796 10.78436958 8.9375 8.125 C8.10089844 7.44695313 7.26429688 6.76890625 6.40234375 6.0703125 C4.15779113 4.1359826 2.06315912 2.12510154 0 0 Z " fill="#D8D8D8" transform="translate(304,688)"/>
<path d="M0 0 C0.66 0.33 1.32 0.66 2 1 C-3.33333333 6.33333333 -8.66666667 11.66666667 -14 17 C-14 13 -14 13 -13 10 C-11.02876615 8.36685568 -9.07729516 6.85878226 -7 5.375 C-3.35197248 2.8612059 -3.35197248 2.8612059 0 0 Z " fill="#202020" transform="translate(769,314)"/>
<path d="M0 0 C3.36716935 1.45383375 5.52270045 3.30961491 8.0625 5.9375 C8.73410156 6.62714844 9.40570313 7.31679688 10.09765625 8.02734375 C10.72542969 8.67832031 11.35320312 9.32929687 12 10 C12.99776537 11.00222965 13.9968799 12.00312987 15 13 C12 14 12 14 10 13.375 C7.4499406 11.62183416 6.5507465 9.66728398 5 7 C4.113125 6.113125 3.22625 5.22625 2.3125 4.3125 C1.549375 3.549375 0.78625 2.78625 0 2 C0 1.34 0 0.68 0 0 Z " fill="#EFEFEF" transform="translate(379,569)"/>
<path d="M0 0 C0.99 0.66 1.98 1.32 3 2 C2.67 3.65 2.34 5.3 2 7 C1.01 7 0.02 7 -1 7 C-1.66 7.66 -2.32 8.32 -3 9 C-4.32 8.01 -5.64 7.02 -7 6 C-3.375 1.125 -3.375 1.125 0 0 Z " fill="#060606" transform="translate(740,340)"/>
<path d="M0 0 C0.66 0.33 1.32 0.66 2 1 C1.67 1.33 1.34 1.66 1 2 C2.32 2.66 3.64 3.32 5 4 C0.5 8 0.5 8 -4 8 C-3.7525 7.1028125 -3.7525 7.1028125 -3.5 6.1875 C-2.8885876 3.88655664 -2.8885876 3.88655664 -3 1 C-2.01 0.67 -1.02 0.34 0 0 Z " fill="#1A1A1A" transform="translate(787,276)"/>
<path d="M0 0 C0.33 0.99 0.66 1.98 1 3 C0.33333333 4.33333333 -0.33333333 5.66666667 -1 7 C-0.67 7.99 -0.34 8.98 0 10 C-0.66 10.66 -1.32 11.32 -2 12 C-2.66 10.68 -3.32 9.36 -4 8 C-4.99 8 -5.98 8 -7 8 C-6.02133662 6.85373678 -5.04205413 5.70800212 -4.0625 4.5625 C-3.51722656 3.92441406 -2.97195313 3.28632813 -2.41015625 2.62890625 C-1.63204305 1.73008851 -0.84063472 0.84063472 0 0 Z " fill="#121212" transform="translate(745,333)"/>
<path d="M0 0 C0.66 0.66 1.32 1.32 2 2 C-2.97281557 6.36574458 -7.96836982 10.70214922 -13 15 C-13.66 14.67 -14.32 14.34 -15 14 C-10.05 9.38 -5.1 4.76 0 0 Z " fill="#E0E0E0" transform="translate(555,696)"/>
<path d="M0 0 C0.33 0.66 0.66 1.32 1 2 C0.34 1.67 -0.32 1.34 -1 1 C-0.67 0.67 -0.34 0.34 0 0 Z M-1 2 C-1.33 3.98 -1.66 5.96 -2 8 C-4.07553648 8.5534764 -5.84365964 9 -8 9 C-8.33 8.01 -8.66 7.02 -9 6 C-3.25 2 -3.25 2 -1 2 Z " fill="#121212" transform="translate(721,310)"/>
<path d="M0 0 C0.99 0.33 1.98 0.66 3 1 C2.34 1.66 1.68 2.32 1 3 C0.071875 4.2065625 0.071875 4.2065625 -0.875 5.4375 C-2.78499219 7.74072587 -4.540626 9.33113907 -7 11 C-7.66 10.67 -8.32 10.34 -9 10 C-6.03 6.7 -3.06 3.4 0 0 Z " fill="#E2E2E2" transform="translate(690,368)"/>
<path d="M0 0 C3.50529602 -0.40060526 4.7739406 -0.15413141 7.75 1.875 C10 4 10 4 11 6 C9.234375 6.6796875 9.234375 6.6796875 7 7 C5.078125 5.8203125 5.078125 5.8203125 3.25 4.125 C2.63640625 3.57070313 2.0228125 3.01640625 1.390625 2.4453125 C0 1 0 1 0 0 Z " fill="#E7E7E7" transform="translate(304,688)"/>
<path d="M0 0 C1.09658936 3.28976808 0.79953138 4.71303767 0 8 C-0.66 7.67 -1.32 7.34 -2 7 C-2.268125 7.639375 -2.53625 8.27875 -2.8125 8.9375 C-4 11 -4 11 -7 12 C-5.44298069 7.32894208 -2.91552627 3.91294315 0 0 Z " fill="#E5E5E5" transform="translate(662,404)"/>
<path d="M0 0 C0.66 0.33 1.32 0.66 2 1 C-0.50357733 6.00715466 -1.750618 7.54284247 -7 10 C-5.6062718 5.56541027 -3.39417765 3.12621626 0 0 Z " fill="#181818" transform="translate(637,387)"/>
<path d="M0 0 C0 4.07300169 -1.58452534 5.77936711 -4 9 C-6.25 10.875 -6.25 10.875 -8 12 C-8 8 -8 8 -6.25 5.859375 C-5.5075 5.16328125 -4.765 4.4671875 -4 3.75 C-3.2575 3.04359375 -2.515 2.3371875 -1.75 1.609375 C-1.1725 1.07828125 -0.595 0.5471875 0 0 Z " fill="#121212" transform="translate(546,362)"/>
<path d="M0 0 C2.5625 0.25 2.5625 0.25 5 1 C5.33 1.66 5.66 2.32 6 3 C5.67 3.99 5.34 4.98 5 6 C2.08482708 4.92598892 0.22189824 4.22189824 -2 2 C-1.34 1.34 -0.68 0.68 0 0 Z " fill="#EEEEEE" transform="translate(391,370)"/>
<path d="M0 0 C0.66 0.33 1.32 0.66 2 1 C1.43410156 1.54269531 0.86820313 2.08539063 0.28515625 2.64453125 C-0.44832031 3.35996094 -1.18179688 4.07539063 -1.9375 4.8125 C-2.66839844 5.52019531 -3.39929688 6.22789062 -4.15234375 6.95703125 C-6.20834646 8.95536163 -6.20834646 8.95536163 -7 12 C-8.32 11.67 -9.64 11.34 -11 11 C-7.37 7.37 -3.74 3.74 0 0 Z " fill="#1A1A1A" transform="translate(677,344)"/>
<path d="M0 0 C0 3 0 3 -1 6 C-1.66 6 -2.32 6 -3 6 C-3.66 7.65 -4.32 9.3 -5 11 C-5.99 11 -6.98 11 -8 11 C-5.69281189 6.71522208 -3.67033927 3.27708863 0 0 Z " fill="#1F1F1F" transform="translate(231,396)"/>
<path d="M0 0 C-1.28813342 0.83878455 -2.58063256 1.67086783 -3.875 2.5 C-4.59429688 2.9640625 -5.31359375 3.428125 -6.0546875 3.90625 C-8 5 -8 5 -10 5 C-10 4.34 -10 3.68 -10 3 C-10.99 2.67 -11.98 2.34 -13 2 C-11.39935157 1.46845258 -9.79431126 0.95011647 -8.1875 0.4375 C-7.29417969 0.14746094 -6.40085937 -0.14257812 -5.48046875 -0.44140625 C-3 -1 -3 -1 0 0 Z " fill="#434343" transform="translate(808,271)"/>
<path d="M0 0 C0.66 0.33 1.32 0.66 2 1 C1.67 1.99 1.34 2.98 1 4 C-2.5625 5.6875 -2.5625 5.6875 -6 7 C-6.66 6.34 -7.32 5.68 -8 5 C-6.71475739 4.13619741 -5.42157581 3.28419631 -4.125 2.4375 C-3.04605469 1.72400391 -3.04605469 1.72400391 -1.9453125 0.99609375 C-1.30335938 0.66738281 -0.66140625 0.33867187 0 0 Z " fill="#E7E7E7" transform="translate(394,496)"/>
<path d="M0 0 C0.99 0.99 1.98 1.98 3 3 C1.25 7.875 1.25 7.875 -1 9 C-1.99 8.01 -2.98 7.02 -4 6 C-3.01 5.67 -2.02 5.34 -1 5 C-0.67 3.35 -0.34 1.7 0 0 Z " fill="#080808" transform="translate(746,333)"/>
<path d="M0 0 C-1.32 1.32 -2.64 2.64 -4 4 C-4.66 3.67 -5.32 3.34 -6 3 C-6 2.01 -6 1.02 -6 0 C-6.66 -0.33 -7.32 -0.66 -8 -1 C-4.37673261 -2.2077558 -3.35853631 -1.54311128 0 0 Z " fill="#101010" transform="translate(780,283)"/>
<path d="M0 0 C0 3.30941204 -0.40339294 5.11090151 -2 8 C-4.625 8.8125 -4.625 8.8125 -7 9 C-6.02180976 7.68677212 -5.0424189 6.37443848 -4.0625 5.0625 C-3.51722656 4.33160156 -2.97195313 3.60070312 -2.41015625 2.84765625 C-1 1 -1 1 0 0 Z " fill="#272727" transform="translate(597,517)"/>
<path d="M0 0 C1.98 0 3.96 0 6 0 C5.34 1.32 4.68 2.64 4 4 C3.01 4 2.02 4 1 4 C0.67 2.68 0.34 1.36 0 0 Z " fill="red" transform="translate(225,395)"/>
<path d="M0 0 C0.66 0.33 1.32 0.66 2 1 C0.02 3.31 -1.96 5.62 -4 8 C-4.66 7.01 -5.32 6.02 -6 5 C-4.02 3.35 -2.04 1.7 0 0 Z " fill="#1E1E1E" transform="translate(701,324)"/>
<path d="M0 0 C0 3 0 3 -2.5 5.6875 C-3.325 6.450625 -4.15 7.21375 -5 8 C-5.66 7.34 -6.32 6.68 -7 6 C-4.69 4.02 -2.38 2.04 0 0 Z " fill="#D9D9D9" transform="translate(741,317)"/>
<path d="M0 0 C1 3 1 3 0.0625 5.1875 C-0.4634375 6.0846875 -0.4634375 6.0846875 -1 7 C-1.66 6.67 -2.32 6.34 -3 6 C-2.42655063 3.13275314 -2.1385485 2.1385485 0 0 Z " fill="#1A1A1A" transform="translate(745,333)"/>
<path d="M0 0 C1.65 0 3.3 0 5 0 C5 0.99 5 1.98 5 3 C3.02 3.99 3.02 3.99 1 5 C0.67 3.35 0.34 1.7 0 0 Z " fill="#161616" transform="translate(793,274)"/>
</svg>
